<?xml version="1.0" encoding="utf-8"?>
<!-- Generator: Adobe Illustrator 27.1.0, SVG Export Plug-In . SVG Version: 6.00 Build 0)  -->
<svg version="1.1" id="Layer_1" xmlns="http://www.w3.org/2000/svg" xmlns:xlink="http://www.w3.org/1999/xlink" x="0px" y="0px"
	 viewBox="0 0 1500 680.56" style="enable-background:new 0 0 1500 680.56;" xml:space="preserve">
<style type="text/css">
	.st0{fill:#FFFFFF;}
</style>
<g>
	<g>
		<g>
			<g>
				<path class="st0" d="M691.44,337.89c9.07,3.53,16.63,9.83,22.67,18.89c6.05,9.07,9.07,20.91,9.07,35.52
					c0,25.45-9.07,46.04-27.21,61.79c-18.14,15.75-42.58,23.62-73.31,23.62H503.62l56.31-264.53h109.22
					c23.43,0,41.32,5.1,53.66,15.3c12.34,10.2,18.52,23.75,18.52,40.62c0,15.12-4.72,28.47-14.17,40.06
					c-9.45,11.59-21.35,20.28-35.71,26.07V337.89z M621.91,431.61c12.34,0,22.42-3.59,30.23-10.77c7.81-7.18,11.72-16.31,11.72-27.4
					c0-8.31-2.46-15.18-7.37-20.6c-4.91-5.41-11.78-8.12-20.6-8.12h-51.39l-13.98,66.89H621.91z M607.17,259.28l-12.85,59.33h49.13
					c10.58,0,19.33-3.27,26.27-9.83c6.93-6.55,10.39-14.99,10.39-25.32c0-7.05-2.14-12.85-6.42-17.38c-4.29-4.53-9.83-6.8-16.63-6.8
					H607.17z"/>
				<path class="st0" d="M911.76,288.76h56.69l-40.06,188.95h-46.1l-0.76-19.65h-3.4c-15.62,15.62-34.64,23.43-57.06,23.43
					c-21.67,0-39.37-7.05-53.1-21.16c-13.73-14.11-20.6-33.26-20.6-57.44c0-31.99,10.58-59.65,31.74-82.95
					c21.16-23.3,47.24-34.96,78.23-34.96c23.18,0,40.3,6.05,51.39,18.14L911.76,288.76z M838.45,432.36
					c14.86,0,27.71-6.29,38.55-18.89c10.83-12.6,16.25-27.08,16.25-43.46c0-11.34-2.9-20.15-8.69-26.45
					c-5.8-6.3-13.86-9.45-24.18-9.45c-14.87,0-27.72,6.18-38.55,18.52c-10.84,12.35-16.25,26.83-16.25,43.46
					c0,11.34,2.89,20.22,8.69,26.64C820.05,429.15,828.11,432.36,838.45,432.36z"/>
				<path class="st0" d="M1048.94,434.25h85.41l-9.45,43.46H959l5.67-28.34l106.95-114.5v-2.65h-78.23l9.07-43.46h158.34
					l-6.05,28.34l-105.81,114.51V434.25z"/>
				<path class="st0" d="M1237.14,434.25h85.41l-9.45,43.46h-165.9l5.67-28.34l106.95-114.5v-2.65h-78.23l9.07-43.46H1349
					l-6.05,28.34l-105.81,114.51V434.25z"/>
			</g>
		</g>
		<g>
			<g>
				<path class="st0" d="M305.95,288.95h-58.97l-16.49,75.89h75.46c24.49,0,44.41,19.91,44.41,44.4c0,24.49-19.92,44.4-44.41,44.4
					h-95.83l-17.24,75.89h113.07c66.33,0,120.28-53.95,120.28-120.28S372.28,288.95,305.95,288.95z"/>
			</g>
			<g>
				<g>
					<polygon class="st0" points="279.81,151.49 246.97,288.95 151,288.95 184.63,151.04 					"/>
				</g>
			</g>
		</g>
	</g>
</g>
</svg>
